<svg version="1" xmlns="http://www.w3.org/2000/svg" width="1600" height="1600" viewBox="0 0 1200.000000 1200.000000"><path d="M562.8 156.5c-.2.2-5.5.6-11.8.9-6.3.4-13.3.9-15.5 1.1-2.2.2-6.9.7-10.5 1-3.6.4-6.7.8-7 1-.3.1-3.6.6-7.5 1-3.8.4-7.2.8-7.5 1-.3.1-2.6.6-5.3.9-7.2 1-27.1 5.1-40.8 8.6-68.1 16.9-132.8 51.1-184.8 97.5-6.7 5.9-27.8 27.1-34 34-42.3 47.2-80.4 115.2-101.5 181-6.7 21-8.7 27.5-9.2 29.8-.1 1-1.2 5-2.2 9-1.1 4-3.4 13.5-5.1 21.2-3.1 14.1-3.7 17.1-4.7 23.5-.3 1.9-.7 4.2-.9 5-.3.8-.7 3.3-1 5.5-.3 2.2-1 6.2-1.5 9-.5 2.7-1.2 7.5-1.5 10.5-.3 3-.8 6.2-1 7-.2.8-.6 4.2-1 7.5-.3 3.3-.8 7.6-1 9.5-1.5 12.8-2 18.5-3 32.7-2.5 33.8-2.5 100.2 0 115.5.2 1.3.6 5 .9 8.3.7 6.6 1.3 12.3 2.1 17.2.3 1.8.8 5 1.1 7 .3 2.1 1.2 7.2 2.1 11.3.8 4.1 1.7 8.8 2 10.5 1 6.8 7.7 30.9 12.4 44.9 19.4 57.6 50.3 103.1 90.4 132.9 5 3.7 9.5 7.1 10.2 7.7.7.5 1.5 1 1.9 1 .4 0 1.5.6 2.3 1.4.9.7 3.6 2.4 6.1 3.7 2.5 1.3 5.2 2.9 6 3.5 2.4 1.9 18.8 8.9 28.5 12.2 9.6 3.3 22.1 6.6 29.5 7.7 2.5.4 5.4.9 6.5 1.1 12.4 2.5 45.6 2.4 62.5-.2 6.7-1 22.5-5.3 29-8 18.7-7.5 35.1-21.4 47.2-40.1 14.4-22.1 22.5-44.8 28.8-80.4 2.6-14.7 10.2-60.3 11.5-69.1.2-1.5.9-5.5 1.6-9 .6-3.5 1.3-7.7 1.6-9.3.2-1.7.8-5.5 1.4-8.5.5-3 1.1-6.9 1.4-8.5.3-1.7.8-4.1 1-5.5.3-1.4.7-3.6 1-5 .2-1.4.9-5.2 1.4-8.5.6-3.3 1.3-7.7 1.7-9.9.3-2.1.8-4.8 1-6 .4-2.1 1-5.8 1.8-10.6.2-1.4.7-3.6 1-5 .3-1.4.8-4.1 1.1-6 .6-4.3.9-5.9 4.2-24.8l2.8-15.2h2.7c7.5 0 23.8 5.2 35.4 11.2 18.5 9.7 36.8 32.4 58.4 72.3 2.3 4.4 5.7 10.5 7.3 13.5 1.7 3 13.8 26.9 26.8 53 13.1 26.1 27 53.1 30.9 60 6.9 12 25.3 39.8 30.2 45.6 27 32 41.9 44.6 68.3 57.5 10.4 5 26.4 11 32.9 12.3 1.2.3 5.3 1.1 9.1 1.9 3.9.9 8.9 1.8 11.3 2.1 2.3.3 6.1.9 8.5 1.2 9.5 1.4 39.4 1 54.2-.7 8.3-1 16.1-2 17.5-2.4 1.4-.3 4.9-1 7.8-1.6 13-2.5 36.2-10.8 48.2-17.2 11.4-6.1 27.5-15.9 29-17.7.3-.3 2.1-1.7 4-3 4.3-2.9 22.2-17.3 26.9-21.4 22.4-20.4 42.8-41.6 58.3-61 5.5-6.9 12.7-20 14.3-26.1.5-1.7 1-3.5 1.1-4 2-5.9 4.1-21.4 4.2-31.4.3-25.1-6.2-41.6-18.7-47.8-5.3-2.6-16.2-2.3-22.5.5-7.6 3.5-10.5 6-25.8 23.5-36.7 41.8-62.5 65.1-84 75.9-8.6 4.3-18.9 8.2-24.8 9.3-1.4.3-3.8.8-5.4 1.1-5.7 1.2-22.6 1.1-30.2-.2-20.2-3.5-35.1-11.7-51.4-28.4-19-19.3-33.7-42.4-55.6-87-7.9-16.2-15-30.4-15.6-31.5-.6-1.1-2.5-4.5-4.1-7.5-1.7-3-4.8-8.4-7-12-2.2-3.6-4.5-7.4-5.1-8.5-5.6-10-21.8-30.8-30.4-39.1-14.2-13.8-36.5-26.7-58.8-34l-11.7-3.8 6.4-1.9c8.3-2.4 30.8-9.5 33.4-10.6 1.1-.5 6.3-2.6 11.5-4.6 43.5-17.3 81.5-42 113.5-74 7.1-7.2 16.1-16.8 19.8-21.5 16.4-20.4 31.6-46.3 41-70 4.4-11.1 10.9-31.2 12.1-37.5 2.4-13.2 4.6-26.2 5.3-31.6.9-8.2 1-38.2 0-48-4.7-50.6-25.8-97.1-58.7-129.9-11.2-11.2-13.3-13-24-20.9-21.6-16.1-49.1-30-78-39.5-14.8-4.8-37.5-10.4-49.7-12.1-2.1-.3-6-1-8.8-1.5-2.7-.5-7.6-1.2-10.8-1.5-3.2-.4-6.7-.8-7.8-1-1.1-.2-5.7-.7-10.2-1-4.5-.3-10.4-.9-13.2-1.1-5-.6-63.2-1.3-63.7-.9zM587 271c15.5 1.7 26.1 3.4 34.5 5.4 1.1.3 4.7 1.2 8 2s9.8 2.9 14.5 4.6c52.1 18.9 83 58.3 87.7 112 1.2 13.1.6 33.3-1.2 43.5-2.5 14-3.2 17-5.1 23.5-9.8 33.2-28.6 61.8-56.9 86.8-11.7 10.4-35.5 24.9-52.2 32-2.9 1.2-5.4 2.2-5.5 2.2-.2-.1-2.9 1-6 2.4-3.2 1.4-5.8 2.3-5.8 2.1 0-.3-1-.1-2.1.6-2.1 1.1-20.2 6.2-26.4 7.4-12.3 2.4-24.6 4.2-35.2 5l-7.1.6.9-4.1c.5-2.2 1.2-5.7 1.5-7.8.3-2 2.6-14.7 5-28.2s4.7-25.9 5-27.5c.2-1.7.7-3.7.9-4.5.2-.8.7-3.5 1-6 .3-2.5.8-5.2 1-6 .2-.8.6-3.1.9-5 .3-1.9.8-4.6 1.1-6 .3-1.4.9-5 1.5-8s1.2-6.6 1.5-8c.9-4.7 2.5-13.5 3.1-17.5.3-2.2 1-5.9 1.5-8.3.5-2.3 1.2-5.9 1.5-8 .3-2 .7-4.4.9-5.2.3-.8.7-3.3 1-5.5.3-2.2.9-5.4 1.2-7 .4-1.7.7-3.2.8-3.5 2.2-10.1 2.6-29.2.8-38.4-3.5-18.5-14.7-30.9-32.3-36-3-.8-6.8-1.8-8.5-2.1-4.9-1-28.1-1.3-32.7-.5-2.4.5-6.1 1-8.3 1.3-13.7 1.9-30.1 9.8-40.2 19.4-11.1 10.5-20.4 28.8-23.7 46.8-.3 1.6-.8 4.1-1 5.5-.3 1.4-1.2 6.3-2.1 11-.9 4.7-1.9 9.6-2.1 11-.3 1.4-1.3 7-2.4 12.5-1.1 5.5-2.2 11.7-2.6 13.9-.6 4.2-.9 5.5-2.4 13.1-.5 2.7-1.2 6.6-1.5 8.5-.3 1.9-2.1 12.3-4 23s-3.7 21.3-4 23.5c-.4 2.2-.8 4.7-1 5.5-.4 1.5-.9 4.1-2 11.5-.5 3.5-2.7 17-4 24.5-.3 1.4-.8 4.6-1.1 7.2l-.7 4.8H367c-19.1 0-24.2.9-34.5 6-25.2 12.5-34.9 38.5-25.6 69 1.4 4.8 7.5 14.7 11.4 18.9 8.4 8.8 23.3 14 40.7 14.2 5.1.1 6 .4 5.6 1.8-.5 1.7-1.2 5.4-2.1 10.6-.2 1.6-.7 4.1-1 5.5-.2 1.4-.7 3.8-1 5.5-1.8 10.3-8.6 48.4-9 50.5-.3 1.4-.9 5-1.5 8-.5 3-1.9 10.7-3 17-1.2 6.3-2.3 13-2.6 14.9-.2 1.9-.9 5.3-1.4 7.8-.6 2.4-1.3 6-1.6 8.1-.3 2-.7 4.4-.9 5.2-.2.8-.7 3.1-1 5-.3 1.9-1.1 6.2-1.7 9.5-.6 3.3-1.2 7.2-1.4 8.8-1.4 10.6-6.7 28.1-11.2 37-14.7 28.9-42.9 23.4-68.1-13.3-10.8-15.7-19.2-34.9-26.9-61.5-3-10.4-4.1-14.6-4.8-18.9-.3-2.2-1-5-1.5-6.3-.5-1.3-.7-2.3-.4-2.3.2 0 0-1.4-.5-3.1-.5-1.7-1.2-5.7-1.6-8.8-.3-3.1-.8-6.5-1-7.6-5.5-28.4-5.8-100.4-.8-149.5.3-3 .7-7.1.9-9 .3-4 1.4-13.3 2-17 .2-1.4.9-6.1 1.5-10.5 5.7-40.7 17.8-85.6 32.7-121.5C303.2 363.3 382 296.2 491 275.5c4.7-.9 10.5-1.8 13-2.1 2.5-.2 5.4-.6 6.5-.9 1.2-.2 6.1-.7 11-1.1 5-.3 9.1-.8 9.3-.9.7-.7 49.3-.2 56.2.5z"/></svg>